{
	"asset":{
		"generator":"Khronos glTF Blender I/O v5.0.21",
		"version":"2.0"
	},
	"scene":0,
	"scenes":[
		{
			"extras":{
				"mcprep_skins_list":[
					{
						"label":"alex.png skin",
						"description":"alex.png skin",
						"name":"alex.png"
					},
					{
						"label":"redshirt.png skin",
						"description":"redshirt.png skin",
						"name":"redshirt.png"
					},
					{
						"label":"steve.png skin",
						"description":"steve.png skin",
						"name":"steve.png"
					},
					{
						"label":"template-skin.png skin",
						"description":"template-skin.png skin",
						"name":"template-skin.png"
					},
					{
						"label":"theduckcow.png skin",
						"description":"theduckcow.png skin",
						"name":"theduckcow.png"
					},
					{
						"label":"thekindkitten.png skin",
						"description":"thekindkitten.png skin",
						"name":"thekindkitten.png"
					}
				],
				"account_settings":{
					"status_message":"Welcome! Please log in to continue.",
					"login_state":0,
					"block_addon":0,
					"download_url":"https://desktop.beeble.ai/public/blender-addon/beeble-addon_v1.10.2.zip",
					"latest_addon_version":"1.10.2",
					"show_update_message":1,
					"update_message":"Fixed incorrect PBR/depth map offset settings",
					"update_available":1
				},
				"geocables_message":"\\\\nCustom Link:",
				"geocables_link":"",
				"assets used":{
					"11f302b9-ed39-4869-b56a-4fcee6e8c19b":{
						"addonVersion":"3.8.2",
						"assetBaseId":"11f302b9-ed39-4869-b56a-4fcee6e8c19b",
						"assetType":"model",
						"author":{
							"aboutMe":"I am a freelance 3d modeler and animator.",
							"aboutMeUrl":"https://rexmun.artstation.com/",
							"avatar128":"/avatar-redirect/4e7b663a-b843-4740-8fc3-fa7040f964eb/128/",
							"firstName":"Rex",
							"fullName":"Rex Mun",
							"gravatarHash":"5b08b92f0c69ce8a68e6984d22bf3a89",
							"id":"310916",
							"lastName":"Mun"
						},
						"available_resolutions":[],
						"bbox_max":[
							0.5276,
							0.1217,
							1.7617
						],
						"bbox_min":[
							-0.5276,
							-0.2667,
							0.0175
						],
						"canDownload":true,
						"canDownloadError":true,
						"category":"full-body",
						"created":"2022-05-25T20:04:32.295281+02:00",
						"description":"Male body reference compatible with the heads of my assets.",
						"dictParameters":{
							"addons":true,
							"boundBoxMaxX":0.5276,
							"boundBoxMaxY":0.1217,
							"boundBoxMaxZ":1.7617,
							"boundBoxMinX":-0.5276,
							"boundBoxMinY":-0.2667,
							"boundBoxMinZ":0.0175,
							"condition":"new",
							"dimensionX":1.0552,
							"dimensionY":0.3885,
							"dimensionZ":1.7442,
							"engines":[
								"cycles"
							],
							"faceCount":13295,
							"faceCountRender":13295,
							"imageAltTextGen4v":"Detailed male 3D model, neutral pose, designed for head compatibility, ideal for Blender artists.",
							"joinBlenderkitDiscounts":true,
							"manifold":false,
							"manufacturer":"Rex Mun",
							"materials":[
								"body_bsd",
								"eye_bsd"
							],
							"megapixels":0,
							"meshPolyType":"quad_dominant",
							"modelStyle":"realistic",
							"modifiers":[
								""
							],
							"nodeCount":0,
							"objectCount":1,
							"procedural":true,
							"productionLevel":"finished",
							"rig":false,
							"sexualizedContent":false,
							"shaders":[
								""
							],
							"simulation":false,
							"textureCount":0,
							"uv":true
						},
						"displayName":"Male body reference",
						"downloaded":0,
						"files":[
							{
								"created":"2023-09-28T21:47:03.783552+02:00",
								"downloadUrl":"https://www.blenderkit.com/api/v1/downloads/239847/",
								"fileThumbnail":"",
								"fileThumbnailLarge":"",
								"fileType":"blend",
								"filename":"assets/9211dd55af804af2a1e8bd9d152e605c/files/blend_4eb97a5b-5ed5-4de0-aec5-0f26f8a20bfb.blend",
								"modified":"2023-09-28T21:47:03.783605+02:00",
								"resolution":0,
								"url":"https://assets.blenderkit.com/assets/9211dd55af804af2a1e8bd9d152e605c/files/blend_4eb97a5b-5ed5-4de0-aec5-0f26f8a20bfb.blend?verify=1764260642-rDS8Sop5yMqO81F2%2F2Smxoxxl98f3kRx1v14g%2B%2FAvDA%3D",
								"file_name":"D:\\Blenderkit\\models\\male-body-refere_9211dd55-af80-4af2-a1e8-bd9d152e605c\\male-body-reference_4eb97a5b-5ed5-4de0-aec5-0f26f8a20bfb.blend"
							},
							{
								"created":"2023-09-28T21:47:02.305121+02:00",
								"downloadUrl":"https://www.blenderkit.com/api/v1/downloads/239846/",
								"fileThumbnail":"https://public.blenderkit.com/thumbnails/assets/9211dd55af804af2a1e8bd9d152e605c/files/thumbnail_8729f63f-e7a6-4404-aabe-2a37a59372e7.jpg.96x96_q85_crop-%2C.jpg",
								"fileThumbnailLarge":"https://public.blenderkit.com/thumbnails/assets/9211dd55af804af2a1e8bd9d152e605c/files/thumbnail_8729f63f-e7a6-4404-aabe-2a37a59372e7.jpg.1024x1024_q85_crop-%2C.jpg",
								"fileType":"thumbnail",
								"filename":"assets/9211dd55af804af2a1e8bd9d152e605c/files/thumbnail_8729f63f-e7a6-4404-aabe-2a37a59372e7.jpg",
								"modified":"2023-09-28T21:47:02.305167+02:00",
								"resolution":0,
								"url":""
							}
						],
						"filesSize":938,
						"id":"9211dd55-af80-4af2-a1e8-bd9d152e605c",
						"isFree":true,
						"isPrivate":false,
						"lastBlendUpload":"2023-09-28T19:47:03.783552+00:00",
						"lastGltfUpload":"",
						"lastResolutionUpload":"",
						"lastThumbnailUpload":"2023-09-28T19:47:02.305121+00:00",
						"lastUserInteraction":"2023-09-28T21:47:04.259705+02:00",
						"lastVideoUpload":"",
						"lastZipFileUpload":"",
						"license":"cc_zero",
						"max_resolution":0,
						"name":"Male body reference",
						"pk":32903,
						"ratingsAverage":{
							"bookmarks":0.9872773536895675,
							"quality":9,
							"virtualPrice":null,
							"workingHours":4
						},
						"ratingsCount":{
							"bookmarks":393,
							"quality":13,
							"virtualPrice":0,
							"workingHours":10
						},
						"ratingsMedian":{
							"bookmarks":1,
							"quality":10,
							"virtualPrice":null,
							"workingHours":4
						},
						"ratingsSum":{
							"bookmarks":388,
							"quality":117,
							"score":360,
							"virtualPrice":null,
							"workingHours":619
						},
						"score":360,
						"showMarketingLabels":true,
						"sourceAppName":"blender",
						"sourceAppVersion":"3.2.1",
						"tags":[
							"body",
							"3Dbodymodel",
							"man",
							"manbody",
							"humanbody",
							"referencehumanbody",
							"3Dmodel",
							"fullbody",
							"anatomy",
							"character"
						],
						"thumbnail":"thumbnail_8729f63f-e7a6-4404-aabe-2a37a59372e7.jpg.512x512_q85_crop-%2C.jpg.webp",
						"thumbnailLargeUrl":"https://public.blenderkit.com/thumbnails/assets/9211dd55af804af2a1e8bd9d152e605c/files/thumbnail_8729f63f-e7a6-4404-aabe-2a37a59372e7.jpg.1024x1024_q85_crop-%2C.jpg",
						"thumbnailLargeUrlNonsquared":"https://public.blenderkit.com/thumbnails/assets/9211dd55af804af2a1e8bd9d152e605c/files/thumbnail_8729f63f-e7a6-4404-aabe-2a37a59372e7.jpg.1024x1024_q85.jpg",
						"thumbnailLargeUrlNonsquaredWebp":"https://public.blenderkit.com/thumbnails/assets/9211dd55af804af2a1e8bd9d152e605c/files/thumbnail_8729f63f-e7a6-4404-aabe-2a37a59372e7.jpg.1024x1024_q85.jpg.webp?webp_generated=1741984795",
						"thumbnailLargeUrlWebp":"https://public.blenderkit.com/thumbnails/assets/9211dd55af804af2a1e8bd9d152e605c/files/thumbnail_8729f63f-e7a6-4404-aabe-2a37a59372e7.jpg.1024x1024_q85_crop-%2C.jpg.webp?webp_generated=1741984795",
						"thumbnailMiddleUrl":"https://public.blenderkit.com/thumbnails/assets/9211dd55af804af2a1e8bd9d152e605c/files/thumbnail_8729f63f-e7a6-4404-aabe-2a37a59372e7.jpg.512x512_q85_crop-%2C.jpg",
						"thumbnailMiddleUrlNonsquared":"https://public.blenderkit.com/thumbnails/assets/9211dd55af804af2a1e8bd9d152e605c/files/thumbnail_8729f63f-e7a6-4404-aabe-2a37a59372e7.jpg.512x512_q85.jpg",
						"thumbnailMiddleUrlNonsquaredWebp":"https://public.blenderkit.com/thumbnails/assets/9211dd55af804af2a1e8bd9d152e605c/files/thumbnail_8729f63f-e7a6-4404-aabe-2a37a59372e7.jpg.512x512_q85.jpg.webp?webp_generated=1741984795",
						"thumbnailMiddleUrlWebp":"https://public.blenderkit.com/thumbnails/assets/9211dd55af804af2a1e8bd9d152e605c/files/thumbnail_8729f63f-e7a6-4404-aabe-2a37a59372e7.jpg.512x512_q85_crop-%2C.jpg.webp?webp_generated=1741984795",
						"thumbnailSmallUrl":"https://public.blenderkit.com/thumbnails/assets/9211dd55af804af2a1e8bd9d152e605c/files/thumbnail_8729f63f-e7a6-4404-aabe-2a37a59372e7.jpg.256x256_q85_crop-%2C.jpg",
						"thumbnailSmallUrlNonsquared":"https://public.blenderkit.com/thumbnails/assets/9211dd55af804af2a1e8bd9d152e605c/files/thumbnail_8729f63f-e7a6-4404-aabe-2a37a59372e7.jpg.256x256_q85.jpg",
						"thumbnailSmallUrlNonsquaredWebp":"https://public.blenderkit.com/thumbnails/assets/9211dd55af804af2a1e8bd9d152e605c/files/thumbnail_8729f63f-e7a6-4404-aabe-2a37a59372e7.jpg.256x256_q85.jpg.webp?webp_generated=1741984795",
						"thumbnailSmallUrlWebp":"https://public.blenderkit.com/thumbnails/assets/9211dd55af804af2a1e8bd9d152e605c/files/thumbnail_8729f63f-e7a6-4404-aabe-2a37a59372e7.jpg.256x256_q85_crop-%2C.jpg.webp?webp_generated=1741984795",
						"thumbnailXlargeUrl":"https://public.blenderkit.com/thumbnails/assets/9211dd55af804af2a1e8bd9d152e605c/files/thumbnail_8729f63f-e7a6-4404-aabe-2a37a59372e7.jpg.2048x2048_q85_crop-%2C.jpg",
						"thumbnailXlargeUrlNonsquared":"https://public.blenderkit.com/thumbnails/assets/9211dd55af804af2a1e8bd9d152e605c/files/thumbnail_8729f63f-e7a6-4404-aabe-2a37a59372e7.jpg.2048x2048_q85.jpg",
						"thumbnailXlargeUrlNonsquaredWebp":"https://public.blenderkit.com/thumbnails/assets/9211dd55af804af2a1e8bd9d152e605c/files/thumbnail_8729f63f-e7a6-4404-aabe-2a37a59372e7.jpg.2048x2048_q85.jpg.webp?webp_generated=1741984795",
						"thumbnailXlargeUrlWebp":"https://public.blenderkit.com/thumbnails/assets/9211dd55af804af2a1e8bd9d152e605c/files/thumbnail_8729f63f-e7a6-4404-aabe-2a37a59372e7.jpg.2048x2048_q85_crop-%2C.jpg.webp?webp_generated=1741984795",
						"thumbnail_small":"thumbnail_8729f63f-e7a6-4404-aabe-2a37a59372e7.jpg.256x256_q85_crop-%2C.jpg.webp",
						"tooltip_data":{
							"aname":"Male body reference",
							"author_text":"by Rex Mun",
							"quality":"9"
						},
						"url":"https://www.blenderkit.com/api/v1/assets/9211dd55-af80-4af2-a1e8-bd9d152e605c/",
						"verificationStatus":"validated",
						"versionNumber":1,
						"webpGeneratedTimestamp":1741984795,
						"resolution":"resolution_2K"
					}
				},
				"uuid":"ef03ff34-7989-461b-913c-a6cb41977b6e",
				"assets reported":{}
			},
			"name":"Scene",
			"nodes":[
				0
			]
		}
	],
	"nodes":[
		{
			"mesh":0,
			"name":"hallway-col",
			"scale":[
				1.0397381782531738,
				1.0397381782531738,
				1.0397381782531738
			],
			"translation":[
				-2.94755482673645,
				1.0911834239959717,
				1.3962576389312744
			]
		}
	],
	"meshes":[
		{
			"name":"Cube.003",
			"primitives":[
				{
					"attributes":{
						"POSITION":0,
						"NORMAL":1,
						"TEXCOORD_0":2
					},
					"indices":3
				}
			]
		}
	],
	"accessors":[
		{
			"bufferView":0,
			"componentType":5126,
			"count":272,
			"max":[
				14.566689491271973,
				1.3656480312347412,
				3.994171380996704
			],
			"min":[
				-1,
				-1.2930686473846436,
				-6.679958343505859
			],
			"type":"VEC3"
		},
		{
			"bufferView":1,
			"componentType":5126,
			"count":272,
			"type":"VEC3"
		},
		{
			"bufferView":2,
			"componentType":5126,
			"count":272,
			"type":"VEC2"
		},
		{
			"bufferView":3,
			"componentType":5123,
			"count":552,
			"type":"SCALAR"
		}
	],
	"bufferViews":[
		{
			"buffer":0,
			"byteLength":3264,
			"byteOffset":0,
			"target":34962
		},
		{
			"buffer":0,
			"byteLength":3264,
			"byteOffset":3264,
			"target":34962
		},
		{
			"buffer":0,
			"byteLength":2176,
			"byteOffset":6528,
			"target":34962
		},
		{
			"buffer":0,
			"byteLength":1104,
			"byteOffset":8704,
			"target":34963
		}
	],
	"buffers":[
		{
			"byteLength":9808,
			"uri":"hallway-ccfddb8a837c2779daeb22bcfb511f52.bin"
		}
	]
}
